<mxfile host="app.diagrams.net" modified="2022-10-04T13:08:38.630Z" agent="5.0 (Windows NT 10.0; Win64; x64) AppleWebKit/537.36 (KHTML, like Gecko) Chrome/106.0.0.0 Safari/537.36" etag="lF_xaELVdUeDFn3q6KJA" version="20.4.0" type="github">
  <diagram id="V1V9JLcc86BIkmIHIUJj" name="第 1 页">
    <mxGraphModel dx="1459" dy="534" grid="1" gridSize="10" guides="1" tooltips="1" connect="1" arrows="1" fold="1" page="1" pageScale="1" pageWidth="827" pageHeight="1169" math="0" shadow="0">
      <root>
        <mxCell id="0" />
        <mxCell id="1" parent="0" />
        <mxCell id="2KTIXXDjJSpzC48R8wEU-4" value="" style="verticalLabelPosition=bottom;verticalAlign=top;html=1;shape=mxgraph.basic.rect;fillColor2=none;strokeWidth=1;size=10;indent=5;fillStyle=auto;strokeColor=default;fillColor=#000000;gradientColor=none;" vertex="1" parent="1">
          <mxGeometry x="100" y="170" width="20" height="20" as="geometry" />
        </mxCell>
        <mxCell id="2KTIXXDjJSpzC48R8wEU-5" value="" style="verticalLabelPosition=bottom;verticalAlign=top;html=1;shape=mxgraph.basic.rect;fillColor2=none;strokeWidth=1;size=20;indent=5;fillStyle=auto;strokeColor=default;fillColor=#FF0000;gradientColor=none;" vertex="1" parent="1">
          <mxGeometry x="190" y="170" width="20" height="20" as="geometry" />
        </mxCell>
        <mxCell id="2KTIXXDjJSpzC48R8wEU-6" value="" style="verticalLabelPosition=bottom;verticalAlign=top;html=1;shape=mxgraph.basic.rect;fillColor2=none;strokeWidth=1;size=20;indent=5;fillStyle=auto;strokeColor=default;fillColor=#000000;gradientColor=none;" vertex="1" parent="1">
          <mxGeometry x="150" y="140" width="20" height="20" as="geometry" />
        </mxCell>
      </root>
    </mxGraphModel>
  </diagram>
</mxfile>
